<?xml version="1.0" encoding="utf-8"?>
<!-- Generator: Adobe Illustrator 19.1.0, SVG Export Plug-In . SVG Version: 6.00 Build 0)  -->
<svg version="1.1" id="Layer_3" xmlns="http://www.w3.org/2000/svg" xmlns:xlink="http://www.w3.org/1999/xlink" x="0px" y="0px"
	 viewBox="0 0 64 64" style="enable-background:new 0 0 64 64;" xml:space="preserve">
<style type="text/css">
	.st0{opacity:0.5;}
	.st1{fill:#202020;}
	.st2{opacity:0.5;fill:#202020;}
</style>
<g class="st0">
	<path class="st1" d="M32,16.6c1.1,0,2-0.9,2-2v-8c0-1.1-0.9-2-2-2c-1.1,0-2,0.9-2,2v8C30,15.7,30.9,16.6,32,16.6z"/>
	<path class="st1" d="M48,32.6c0,1.1,0.9,2,2,2h8c1.1,0,2-0.9,2-2c0-1.1-0.9-2-2-2h-8C48.9,30.6,48,31.5,48,32.6z"/>
	<path class="st1" d="M6,34.6h8c1.1,0,2-0.9,2-2c0-1.1-0.9-2-2-2H6c-1.1,0-2,0.9-2,2C4,33.7,4.9,34.6,6,34.6z"/>
	<path class="st1" d="M62,38.6H2c-1.1,0-2,0.9-2,2s0.9,2,2,2h28v9.2l-2.6-2.6c-0.8-0.8-2-0.8-2.8,0c-0.8,0.8-0.8,2,0,2.8l7.4,7.4
		l1.4-1.4l0,0l6-6c0.8-0.8,0.8-2,0-2.8c-0.8-0.8-2-0.8-2.8,0L34,51.8v-9.2h28c1.1,0,2-0.9,2-2S63.1,38.6,62,38.6z"/>
	<path class="st1" d="M19,22.4c0.4,0.4,0.9,0.6,1.4,0.6c0.5,0,1-0.2,1.4-0.6c0.8-0.8,0.8-2,0-2.8l-5.7-5.7c-0.8-0.8-2-0.8-2.8,0
		c-0.8,0.8-0.8,2,0,2.8L19,22.4z"/>
	<path class="st1" d="M43.6,23c0.5,0,1-0.2,1.4-0.6l5.7-5.7c0.8-0.8,0.8-2,0-2.8c-0.8-0.8-2-0.8-2.8,0l-5.7,5.7
		c-0.8,0.8-0.8,2,0,2.8C42.5,22.8,43,23,43.6,23z"/>
	<path class="st1" d="M20.2,34.6h23.6c0.1-0.7,0.2-1.3,0.2-2c0-6.6-5.4-12-12-12c-6.6,0-12,5.4-12,12C20,33.3,20.1,33.9,20.2,34.6z"
		/>
</g>
</svg>
